<svg xmlns="http://www.w3.org/2000/svg" viewBox="0 0 96.98 96.98"><defs><style>.cls-1{fill:#fff;}</style></defs><g id="Layer_2" data-name="Layer 2"><g id="Layer_1-2" data-name="Layer 1"><circle class="cls-1" cx="48.49" cy="48.49" r="29.24"/><rect x="45.42" y="24.23" width="6.15" height="28.56"/><rect x="30.36" y="47.16" width="21.2" height="5.62"/><rect class="cls-1" x="45.35" width="6.21" height="15.14"/><rect class="cls-1" x="45.35" y="81.84" width="6.21" height="15.14"/><rect class="cls-1" x="86.3" y="42.4" width="6.21" height="15.14" transform="translate(139.38 -39.43) rotate(90)"/><rect class="cls-1" x="4.47" y="42.4" width="6.21" height="15.14" transform="translate(57.54 42.4) rotate(90)"/><rect class="cls-1" x="74.32" y="12.89" width="6.21" height="15.14" transform="translate(37.15 -48.75) rotate(45)"/><rect class="cls-1" x="16.45" y="70.76" width="6.21" height="15.14" transform="translate(61.12 9.11) rotate(45)"/><rect class="cls-1" x="73.74" y="71.33" width="6.21" height="15.14" transform="translate(186.99 80.36) rotate(135)"/><rect class="cls-1" x="15.88" y="13.47" width="6.21" height="15.14" transform="translate(47.28 22.49) rotate(135)"/></g></g></svg>